<?xml version="1.0" encoding="utf-8"?>
<!-- Generator: Adobe Illustrator 21.0.0, SVG Export Plug-In . SVG Version: 6.00 Build 0)  -->
<svg version="1.1" id="Capa_1" xmlns="http://www.w3.org/2000/svg" xmlns:xlink="http://www.w3.org/1999/xlink" x="0px" y="0px"
	 viewBox="0 0 3589 628" style="enable-background:new 0 0 3589 628;" xml:space="preserve">
<style type="text/css">
	.st0{fill:#F2F2F2;}
</style>
<g>
	<g>
		<g>
			<path class="st0" d="M1463.7,357v149.3h-39v-142c0-49.5-29.7-83.9-75.3-83.9c-43.6,0-75.3,37-75.3,76.6v149.3h-39v-142
				c0-49.5-30.4-83.9-77.3-83.9c-43.6,0-75.3,37-75.3,76.6v149.3h-39V248.7h39v23.1c19.8-18.5,46.9-29.7,77.3-29.7
				c37,0,72.6,18.5,93.8,49.5c28.4-35.7,60.1-49.5,97.7-49.5C1408.2,242.1,1463.7,288.4,1463.7,357z"/>
			<path class="st0" d="M1549.6,391.4V248.7h39v140.7c0,44.3,30.4,78.6,77.3,78.6c43.6,0,75.3-37,75.3-76.6V248.7h39v257.6h-39
				v-29.7c-19.8,18.5-46.9,29.7-77.3,29.7C1605.7,506.3,1549.6,460.1,1549.6,391.4z"/>
			<path class="st0" d="M1852.9,380.8c0-72.9,59.2-132.1,131.5-132.1c36.7,0,69,15.3,93.2,38.9l-58.1,59.2
				c-8.8-9.3-21.9-14.8-35.1-14.8c-26.9,0-48.8,21.9-48.8,48.8s21.9,49.3,48.8,49.3c13.7,0,25.8-4.9,34-14.8l59.2,58.1
				c-23.6,23-53.2,38.4-93.2,38.4C1912.1,511.8,1852.9,454.2,1852.9,380.8z"/>
			<path class="st0" d="M2135.1,254.2h87.7v252.1h-87.7V254.2z M2141.2,187.9c0-21.9,18.1-40.6,40.5-40.6c21.9,0,40,18.6,40,40.6
				s-18.1,40.5-40,40.5C2159.2,228.5,2141.2,209.8,2141.2,187.9z"/>
			<path class="st0" d="M2446.4,320.5h-43.3v185.8h-87.7V320.5h-43.3v-66.3h43.3v-75.6h87.7v75.6h43.3V320.5z"/>
			<path class="st0" d="M2775.2,254.2v252.1h-89.3v-12.1c-19.7,11.5-41.6,17.5-65.8,17.5c-73.4,0-132.6-58.1-132.6-131.5
				c0-72.9,59.2-131.5,132.6-131.5c24.1,0,46,6,65.8,17.5v-12.1H2775.2z M2667.2,381.4c0-26.9-20.3-48.8-47.1-48.8
				c-26.3,0-48.8,21.9-48.8,48.8c0,27.4,22.5,49.3,48.8,49.3C2646.9,430.7,2667.2,408.8,2667.2,381.4z"/>
			<path class="st0" d="M2832.7,378.6c0-74.5,59.7-129.9,131.5-129.9c23,0,46,7.1,65.2,18.6V94.8h87.7v411.5h-87.7V491
				c-19.2,12.1-38.9,20.8-65.2,20.8C2896.8,511.8,2832.7,458.6,2832.7,378.6z M3013.5,380.3c0-26.3-20.8-48.8-49.9-48.8
				c-26.9,0-48.2,22.5-48.2,48.8c0,26.9,21.4,49.3,48.2,49.3C2992.2,429.6,3013.5,407.1,3013.5,380.3z"/>
			<path class="st0" d="M3180.1,380.3c0-72.9,58.6-131.5,132.1-131.5c74,0,130.4,58.6,130.4,131.5c0,8.8-0.5,17.5-2.2,26.3h-183
				c9.9,19.7,30.7,34,54.8,34c10.4,0,20.8-2.7,29-7.7l52.1,52.1c-23,16.4-51,26.9-81.1,26.9C3238.7,511.8,3180.1,453.7,3180.1,380.3
				z M3364.8,355.1c-8.8-20.3-28.5-34.5-52.6-34.5c-24.7,0-45.5,14.2-55.3,34.5H3364.8z"/>
			<path class="st0" d="M3500.1,95.3h87.7v411h-87.7V95.3z"/>
		</g>
	</g>
	<g>
		<g>
			<g>
				<g>
					<path class="st0" d="M344.9,324.3c0,0.6,0,1.2,0,1.9c0,1.4-0.1,2.8-0.2,4.2c-0.1,0.7-0.2,1.3-0.3,2c0,0.4-0.1,0.8-0.2,1.1
						c-0.1,0.4-0.1,0.9-0.2,1.3c-0.1,0.5-0.2,1-0.3,1.4c-0.2,0.6-0.3,1.3-0.5,1.9c-0.1,0.3-0.2,0.6-0.3,0.8c0,0.1,0,0.1-0.1,0.2
						c-0.1,0.3-0.2,0.5-0.3,0.8c-0.1,0.3-0.2,0.6-0.3,0.9c-0.2,0.6-0.4,1.2-0.7,1.8c0,0.1,0,0.1-0.1,0.2c-0.3,0.7-0.6,1.3-0.9,2
						c-0.1,0.2-0.2,0.3-0.2,0.5v0c-0.3,0.6-0.7,1.3-1,1.9c-0.1,0.2-0.2,0.4-0.3,0.5c0,0-0.1,0.1-0.1,0.1c-0.2,0.3-0.4,0.6-0.5,0.9
						c-0.1,0.2-0.2,0.4-0.4,0.6c-0.2,0.3-0.4,0.6-0.6,0.9c-0.3,0.4-0.5,0.8-0.8,1.2c0,0,0,0-0.1,0.1c-0.4,0.6-0.9,1.2-1.4,1.8
						c-0.5,0.5-0.9,1.1-1.4,1.6c-0.4,0.4-0.8,0.8-1.2,1.2c-0.2,0.2-0.4,0.3-0.5,0.5c-0.1,0.1-0.2,0.2-0.4,0.3
						c-0.3,0.3-0.5,0.5-0.8,0.7c-0.4,0.4-0.7,0.7-1.1,1c-0.7,0.7-1.5,1.2-2.3,1.8c-0.5,0.4-1.1,0.8-1.7,1.1
						c-0.2,0.2-0.4,0.3-0.6,0.4c-0.5,0.3-1.1,0.7-1.6,0.9c-0.1,0.1-0.2,0.2-0.4,0.2c-0.4,0.2-0.9,0.5-1.3,0.7
						c-0.6,0.3-1.2,0.6-1.8,0.9c-1.7,0.8-3.5,1.4-5.3,2c-0.1,0-0.3,0.1-0.4,0.1c-0.3,0.1-0.6,0.2-0.9,0.3c-0.2,0.1-0.5,0.1-0.7,0.2
						c-0.1,0-0.2,0-0.3,0.1c-0.1,0-0.2,0-0.2,0.1c-0.9,0.2-1.7,0.4-2.6,0.5c-0.3,0-0.5,0.1-0.8,0.1c-0.2,0-0.4,0.1-0.5,0.1
						c-1.8,0.2-3.6,0.4-5.5,0.4c-0.8,0-1.6,0-2.5-0.1c-0.6,0-1.2-0.1-1.8-0.2c-0.5,0-1.1-0.1-1.6-0.2c-0.4,0-0.7-0.1-1.1-0.2
						c-1-0.2-1.9-0.4-2.9-0.6c-0.5-0.1-0.9-0.2-1.4-0.4c-0.9-0.2-1.8-0.5-2.7-0.8l0,0c-0.4-0.2-0.9-0.3-1.3-0.5
						c-2.1-0.8-4.2-1.8-6.2-3l0,0c-0.7-0.4-1.4-0.9-2.1-1.3c0,0-0.1-0.1-0.2-0.1c-0.7-0.5-1.4-1-2.1-1.6c-0.7-0.5-1.3-1-1.9-1.6
						c-0.1-0.1-0.2-0.1-0.3-0.2c-0.6-0.5-1.2-1.1-1.8-1.6c-0.5-0.5-1-1-1.4-1.6c-0.3-0.3-0.5-0.5-0.7-0.8c-0.5-0.6-1-1.2-1.4-1.8
						c-0.5-0.6-1-1.3-1.4-2c-0.1-0.2-0.2-0.4-0.4-0.5c-0.4-0.6-0.8-1.2-1.1-1.8c-0.3-0.5-0.5-0.9-0.8-1.4c-0.3-0.5-0.6-1.1-0.9-1.7
						c-0.2-0.4-0.3-0.7-0.5-1.1c-0.1-0.3-0.3-0.6-0.4-0.9c-0.2-0.5-0.4-0.9-0.5-1.4c-0.2-0.4-0.3-0.8-0.4-1.2
						c-0.2-0.4-0.3-0.9-0.4-1.3c-0.2-0.4-0.3-0.9-0.4-1.3c-0.1-0.3-0.2-0.7-0.3-1c-0.1-0.5-0.3-1.1-0.4-1.6
						c-0.1-0.5-0.2-0.9-0.3-1.4c0-0.3-0.1-0.5-0.1-0.8c-0.1-0.6-0.2-1.2-0.2-1.8c0-0.1,0-0.2,0-0.3l-0.1-1.6c0-0.8-0.1-1.6-0.1-2.5
						c0-1.4,0.1-2.7,0.2-4c0-0.6,0.1-1.2,0.2-1.9c0-0.1,0-0.3,0.1-0.4c0,0,0,0,0,0v0c0.1-0.4,0.2-0.9,0.2-1.3
						c0.1-0.3,0.1-0.6,0.2-0.9c0.1-0.5,0.2-1,0.3-1.5c0.2-0.9,0.4-1.7,0.7-2.5c0.1-0.4,0.2-0.8,0.4-1.2c0.2-0.5,0.4-1.1,0.6-1.7
						c5.9-14.9,20-25.6,36.7-26.5c0.1,0,0.2,0,0.2,0c0.7,0,1.4-0.1,2.1-0.1c0.6,0,1.2,0,1.8,0c0.3,0,0.6,0,0.9,0
						c1,0,1.9,0.2,2.9,0.3c0.4,0,0.9,0.1,1.3,0.2c1.3,0.2,2.6,0.5,3.9,0.8c0.6,0.2,1.2,0.3,1.8,0.5l0,0c0.7,0.2,1.3,0.4,2,0.7
						c0.6,0.2,1.2,0.5,1.9,0.7c0.6,0.3,1.2,0.5,1.9,0.8c0.4,0.2,0.7,0.4,1.1,0.6c0.3,0.2,0.6,0.4,1,0.5c0,0,0,0,0,0
						c0.9,0.5,1.8,1.1,2.7,1.6c0.4,0.3,0.9,0.6,1.3,0.9c1.4,1,2.7,2,3.9,3.1c0.4,0.3,0.7,0.7,1.1,1c0.1,0.1,0.2,0.2,0.2,0.2
						c0.3,0.3,0.7,0.7,1,1c0.6,0.6,1.1,1.2,1.6,1.8c0.4,0.4,0.7,0.8,1,1.3c0.3,0.4,0.6,0.8,0.9,1.2c1.6,2.3,3.1,4.7,4.2,7.3
						c0.2,0.4,0.4,0.9,0.6,1.4c0.2,0.5,0.4,0.9,0.5,1.4l0,0c0.2,0.6,0.4,1.2,0.6,1.8l0,0c0.8,2.6,1.4,5.2,1.7,8
						c0.1,0.5,0.1,0.9,0.1,1.4c0,0.1,0,0.3,0,0.4C344.9,323.6,344.9,323.9,344.9,324.3z"/>
					<g>
						<path class="st0" d="M344.9,324.3c0-0.3,0-0.7-0.1-1c0-0.1,0-0.3,0-0.4c-0.1-0.5-0.1-0.9-0.1-1.4c-0.2-1.4-0.4-2.8-0.7-4.1
							c-0.3-1.3-0.6-2.6-1-3.9l0,0c-0.2-0.6-0.4-1.2-0.6-1.8l0,0c-0.2-0.5-0.4-0.9-0.6-1.4c-0.2-0.5-0.4-0.9-0.6-1.4
							c-1.1-2.6-2.6-5-4.2-7.3c-0.3-0.4-0.6-0.8-0.9-1.2c-0.3-0.4-0.7-0.9-1-1.3c-0.5-0.6-1-1.2-1.6-1.8c-0.3-0.4-0.7-0.7-1-1
							c-0.1-0.1-0.2-0.2-0.2-0.2c-0.4-0.4-0.7-0.7-1.1-1c-1.2-1.1-2.5-2.2-3.9-3.1c-0.4-0.3-0.8-0.6-1.3-0.9
							c-0.9-0.6-1.8-1.2-2.7-1.6c0,0,0,0,0,0c-0.3-0.2-0.6-0.4-1-0.5c-0.4-0.2-0.7-0.4-1.1-0.6c-0.6-0.3-1.2-0.6-1.9-0.8
							c-0.6-0.3-1.2-0.5-1.9-0.7c-0.7-0.2-1.3-0.4-2-0.7c-0.3-0.1-0.6-0.2-0.9-0.3l0,0c-0.3-0.1-0.6-0.2-0.9-0.2
							c-0.6-0.2-1.3-0.3-1.9-0.5c-0.6-0.1-1.3-0.2-2-0.3c-0.4-0.1-0.9-0.2-1.3-0.2c-0.9-0.1-1.9-0.2-2.9-0.3c-0.3,0-0.6,0-0.9-0.1
							c-0.6,0-1.2,0-1.8,0c-0.7,0-1.3,0-2,0.1h-0.4c-1.3,0.1-2.5,0.2-3.8,0.4c-0.4,0.1-0.7,0.1-1.1,0.2c-0.5,0.1-1.1,0.2-1.6,0.3
							c-0.3,0.1-0.6,0.1-0.9,0.2c-0.3,0.1-0.6,0.1-0.8,0.2c-0.5,0.1-0.9,0.3-1.4,0.4c-0.7,0.2-1.5,0.5-2.2,0.7l-0.1,0
							c0,0-0.1,0-0.1,0c-0.7,0.3-1.4,0.6-2.1,0.8c-0.7,0.3-1.4,0.6-2,0.9c-0.2,0.1-0.5,0.2-0.7,0.4c-0.5,0.3-1,0.5-1.5,0.8
							c-0.4,0.2-0.8,0.5-1.2,0.7c-0.4,0.2-0.8,0.5-1.1,0.7c-0.6,0.4-1.2,0.8-1.8,1.3c-0.6,0.5-1.2,0.9-1.8,1.4c0,0,0,0,0,0
							c0,0,0,0-0.1,0.1c-0.5,0.4-1.1,0.9-1.6,1.4c-2.9,2.6-5.3,5.5-7.4,8.8c-0.2,0.3-0.4,0.6-0.6,0.9c-0.1,0.2-0.2,0.3-0.3,0.5
							c-0.4,0.7-0.8,1.5-1.2,2.3c-0.5,1-1,2-1.4,3.1c-0.2,0.6-0.4,1.1-0.6,1.7c-0.2,0.4-0.3,0.8-0.4,1.2c-0.3,0.8-0.5,1.6-0.7,2.5
							c-0.1,0.5-0.2,1-0.3,1.5c-0.1,0.3-0.1,0.6-0.2,0.9c-0.1,0.4-0.1,0.8-0.2,1.3v0c0,0,0,0,0,0c0,0.2-0.1,0.3-0.1,0.4
							c0,0.2-0.1,0.4-0.1,0.6c-0.1,0.4-0.1,0.8-0.1,1.2c-0.1,1-0.2,2-0.2,3c0,0.3,0,0.7,0,1c0,0.8,0,1.7,0.1,2.5
							c0,0.5,0.1,1.1,0.1,1.6c0,0.1,0,0.2,0,0.3c0.1,0.6,0.1,1.2,0.2,1.8c0,0.3,0.1,0.5,0.1,0.8c0.1,0.5,0.2,0.9,0.3,1.4
							c0.1,0.6,0.2,1.1,0.4,1.6c0.1,0.3,0.2,0.7,0.3,1c0.1,0.2,0.1,0.4,0.2,0.7c0.1,0.2,0.1,0.5,0.2,0.7c0.1,0.4,0.3,0.8,0.4,1.3
							c0.1,0.4,0.3,0.8,0.4,1.2c0.2,0.5,0.4,0.9,0.5,1.4c0.1,0.3,0.3,0.6,0.4,0.9c0.2,0.4,0.3,0.7,0.5,1.1c0.3,0.6,0.5,1.1,0.9,1.7
							c0.2,0.5,0.5,0.9,0.8,1.4c0.3,0.6,0.7,1.2,1.1,1.8c0.1,0.2,0.2,0.4,0.4,0.5c0.5,0.7,0.9,1.4,1.5,2c0.4,0.6,0.9,1.2,1.4,1.8
							c0.2,0.3,0.5,0.6,0.7,0.8c0.5,0.5,0.9,1,1.4,1.6c0.6,0.6,1.1,1.1,1.8,1.6c0.1,0.1,0.2,0.2,0.3,0.2c0.6,0.5,1.2,1.1,1.9,1.6
							c0.7,0.5,1.4,1.1,2.1,1.6c0.1,0,0.1,0.1,0.2,0.1c0.7,0.5,1.4,0.9,2.1,1.3l0,0c1.9,1.2,4,2.1,6.2,3c0.4,0.2,0.9,0.3,1.3,0.5
							l0,0c0.9,0.3,1.8,0.6,2.6,0.8c0.5,0.1,0.9,0.2,1.4,0.4c0.9,0.2,1.9,0.4,2.9,0.6c0.4,0.1,0.7,0.1,1.1,0.2
							c0.5,0.1,1.1,0.2,1.6,0.2c0.6,0.1,1.2,0.1,1.8,0.2c0.8,0.1,1.6,0.1,2.5,0.1c1.8,0,3.7-0.1,5.5-0.3c0.2,0,0.4-0.1,0.5-0.1
							c0.3,0,0.5-0.1,0.8-0.1c0.4-0.1,0.7-0.1,1.1-0.2c0.5-0.1,1-0.2,1.6-0.3c0,0,0.1,0,0.1,0c0,0,0.1,0,0.1,0
							c0.1,0,0.2-0.1,0.3-0.1c0.2-0.1,0.5-0.1,0.7-0.2c0.3-0.1,0.6-0.2,0.9-0.3c0.2-0.1,0.3-0.1,0.4-0.1c1.8-0.5,3.6-1.2,5.3-2
							c0.6-0.3,1.2-0.6,1.8-0.8c0.5-0.2,0.9-0.4,1.3-0.7c0.1-0.1,0.2-0.1,0.4-0.2c0.6-0.3,1.1-0.6,1.6-0.9c0.2-0.1,0.4-0.3,0.6-0.4
							c0.6-0.4,1.1-0.8,1.7-1.1c0.8-0.6,1.6-1.1,2.3-1.8c0.4-0.3,0.8-0.7,1.1-1c0.3-0.2,0.5-0.5,0.8-0.7c0.1-0.1,0.2-0.2,0.4-0.3
							c0,0,0.1-0.1,0.1-0.1c0.1,0,0.1-0.1,0.1-0.1c0.1-0.1,0.2-0.2,0.3-0.2c0.2-0.2,0.4-0.4,0.6-0.6c0.1-0.1,0.2-0.3,0.4-0.4
							c0,0,0.1-0.1,0.1-0.1c0,0,0.1-0.1,0.1-0.1c0.2-0.3,0.5-0.5,0.7-0.8c0.2-0.2,0.3-0.4,0.5-0.6c0.1,0,0.1-0.1,0.1-0.1
							c0-0.1,0.1-0.1,0.1-0.1c0.5-0.6,1-1.2,1.4-1.8c0,0,0-0.1,0.1-0.1c0.3-0.4,0.5-0.8,0.8-1.2c0.2-0.3,0.4-0.6,0.6-0.9
							c0.1-0.2,0.2-0.4,0.4-0.6c0.2-0.3,0.3-0.5,0.5-0.9c0,0,0.1-0.1,0.1-0.1c0.1-0.2,0.2-0.4,0.3-0.6c0.1-0.2,0.2-0.4,0.3-0.6
							c0.2-0.4,0.5-0.9,0.7-1.3c0,0,0,0,0,0c0.1-0.2,0.2-0.3,0.2-0.5c0.3-0.7,0.6-1.3,0.9-2c0.1-0.1,0.1-0.1,0.1-0.2
							c0.3-0.6,0.5-1.2,0.7-1.8c0.1-0.3,0.2-0.6,0.3-0.9c0.1-0.3,0.2-0.5,0.3-0.8c0-0.1,0-0.1,0.1-0.2c0.1-0.3,0.2-0.5,0.3-0.8
							c0.2-0.6,0.4-1.2,0.5-1.9c0.1-0.5,0.2-0.9,0.3-1.4c0.1-0.4,0.2-0.9,0.2-1.3c0.1-0.4,0.1-0.7,0.2-1.1c0.1-0.6,0.2-1.3,0.3-1.9
							c0.2-1.4,0.2-2.8,0.2-4.2C345,325.5,345,324.9,344.9,324.3z"/>
						<path class="st0" d="M619.6,326.2c0,1.4-0.1,2.8-0.2,4.2c-0.7,6.9-3,13.3-6.7,18.8c-7.5,11.4-20.4,19-35.1,19
							c-7.8,0-15.1-2.1-21.3-5.8c-7.1-4.2-12.8-10.3-16.4-17.7c-2.7-5.6-4.3-11.9-4.3-18.5c0-1.8,0.1-3.5,0.3-5.3
							c0-0.4,0.1-0.7,0.2-1c0.1-0.7,0.2-1.5,0.4-2.2c0.5-2.4,1.2-4.7,2.1-6.9c4.7-11.9,14.7-21.1,27-24.8c3.8-1.1,7.8-1.8,12-1.8
							c18.8,0,34.7,12.3,40,29.3C618.9,317.5,619.6,321.7,619.6,326.2z"/>
						<path class="st0" d="M345,326.1c0,1.4-0.1,2.8-0.2,4.2c-0.1,0.7-0.2,1.3-0.2,2c-0.4,2.3-0.9,4.6-1.6,6.8
							c-0.1,0.3-0.2,0.5-0.3,0.8c-0.6,1.8-1.4,3.6-2.2,5.3v0c-0.5,0.9-0.9,1.7-1.4,2.6c-0.2,0.3-0.4,0.6-0.5,0.9
							c-0.3,0.5-0.6,1-1,1.4c-1.6,2.3-3.4,4.4-5.4,6.3c-0.1,0.1-0.2,0.2-0.4,0.3c-0.3,0.3-0.5,0.5-0.8,0.7c-0.4,0.4-0.7,0.7-1.1,1
							c-2,1.6-4,3-6.2,4.3c-0.6,0.3-1.1,0.6-1.7,0.9c-0.6,0.3-1.2,0.6-1.8,0.9c-1.7,0.7-3.5,1.4-5.3,2c-0.1,0-0.3,0.1-0.4,0.1
							c-0.5,0.2-1,0.3-1.6,0.4c-0.1,0-0.2,0-0.3,0.1c-1.2,0.3-2.4,0.5-3.6,0.7c-2,0.3-4,0.4-6,0.4c-0.8,0-1.6,0-2.5-0.1
							c-0.6,0-1.2-0.1-1.8-0.2c-0.5,0-1.1-0.1-1.6-0.2c-0.4,0-0.7-0.1-1.1-0.2c-1-0.2-2-0.4-2.9-0.6c-0.5-0.1-0.9-0.2-1.4-0.4
							c-0.9-0.2-1.8-0.5-2.6-0.8l0,0c-0.4-0.2-0.9-0.3-1.3-0.5c-2.1-0.8-4.2-1.8-6.2-3l0,0c-0.7-0.4-1.4-0.9-2.1-1.3
							c0,0-0.1-0.1-0.2-0.1c-0.7-0.5-1.4-1-2.1-1.6c-0.7-0.5-1.3-1-1.9-1.6c-0.1-0.1-0.2-0.1-0.3-0.2c-0.6-0.5-1.2-1.1-1.8-1.6
							c-0.5-0.5-1-1-1.4-1.6c-0.3-0.3-0.5-0.5-0.7-0.8c-0.5-0.6-1-1.2-1.4-1.8c-0.5-0.6-1-1.3-1.4-2c-0.1-0.2-0.2-0.4-0.4-0.5
							c-0.4-0.6-0.8-1.2-1.1-1.8c-0.3-0.5-0.5-0.9-0.8-1.4c-0.3-0.5-0.6-1.1-0.9-1.7c-0.2-0.4-0.3-0.7-0.5-1.1
							c-0.1-0.3-0.3-0.6-0.4-0.9c-0.2-0.5-0.4-0.9-0.5-1.4c-0.2-0.4-0.3-0.8-0.4-1.2c-0.2-0.4-0.3-0.9-0.4-1.3
							c-0.2-0.4-0.3-0.9-0.4-1.3c-0.1-0.3-0.2-0.7-0.3-1c-0.1-0.5-0.3-1.1-0.4-1.6c-0.1-0.5-0.2-0.9-0.3-1.4c0-0.3-0.1-0.5-0.1-0.8
							c-0.1-0.6-0.2-1.2-0.2-1.8c0-0.1,0-0.2,0-0.3l-0.1-1.6c0-0.8-0.1-1.6-0.1-2.5c0-1.4,0.1-2.7,0.2-4c0-0.6,0.1-1.2,0.2-1.9
							c0-0.1,0-0.3,0.1-0.4c0,0,0,0,0,0v0c0.1-0.4,0.2-0.9,0.2-1.3c0.1-0.3,0.1-0.6,0.2-0.9c0.1-0.5,0.2-1,0.3-1.5
							c0.2-0.9,0.4-1.7,0.7-2.5c0.1-0.4,0.2-0.8,0.4-1.2c0.2-0.5,0.4-1.1,0.6-1.7c5.9-14.9,20-25.6,36.7-26.5c0.1,0,0.2,0,0.2,0
							c0.7,0,1.4-0.1,2.1-0.1c0.6,0,1.2,0,1.8,0c0.3,0,0.6,0,0.9,0c1,0,1.9,0.2,2.9,0.3c0.4,0,0.9,0.1,1.3,0.2
							c1.3,0.2,2.6,0.5,3.9,0.8c0.6,0.2,1.2,0.3,1.8,0.5l0,0c0.7,0.2,1.3,0.4,2,0.7c0.6,0.2,1.2,0.5,1.9,0.7
							c0.6,0.3,1.2,0.5,1.9,0.8c0.4,0.2,0.7,0.4,1.1,0.6c0.3,0.2,0.6,0.4,1,0.5c0,0,0,0,0,0c0.9,0.5,1.8,1.1,2.7,1.6
							c0.4,0.3,0.9,0.6,1.3,0.9c1.4,1,2.7,2,3.9,3.1c0.4,0.3,0.7,0.7,1.1,1c0.1,0.1,0.2,0.2,0.2,0.2c0.3,0.3,0.7,0.7,1,1
							c0.6,0.6,1.1,1.2,1.6,1.8c0.4,0.4,0.7,0.8,1,1.3c0.3,0.4,0.6,0.8,0.9,1.2c1.6,2.3,3.1,4.7,4.2,7.3c0.2,0.4,0.4,0.9,0.6,1.4
							c0.2,0.5,0.4,0.9,0.5,1.4c0.2,0.6,0.4,1.2,0.6,1.8c0.8,2.6,1.4,5.2,1.7,8c0.1,0.5,0.1,0.9,0.1,1.4c0,0.1,0,0.3,0,0.4
							c0,0.3,0,0.7,0.1,1C344.9,324.9,345,325.5,345,326.1z"/>
					</g>
					<path class="st0" d="M870.6,454.3c-0.6,0.1-1.2,0.3-1.8,0.4c-3.5,0.7-7,1.2-10.5,1.5c-14.5,1.4-28.5-0.2-41-3.1
						c-8.1-1.8-15.6-4.2-22-6.6c3-1.3,5.9-2.6,8.7-3.9c1.6-0.7,3.1-1.5,4.6-2.2c0.6-0.3,1.3-0.6,1.9-1c2.9-1.5,5.6-3.1,8.3-4.6
						c32.9-19.4,48.3-43.2,55.4-60.3c3.7-8.8,5.1-15.9,5.7-19.5c0.3-1.9,0.4-2.9,0.4-2.9c-0.9,0.8-1.8,1.5-2.6,2.2
						c-1.2,1-2.5,2-3.8,2.9c-0.9,0.7-1.8,1.3-2.8,2c-18,12.4-38.5,18-56.1,20.4c-0.3,0.1-0.5,0.1-0.8,0.1c-1.4,0.2-2.8,0.4-4.1,0.5
						c0.9-2.9,1.7-5.9,2.5-8.8c0.2-0.7,0.4-1.4,0.6-2.1c0-0.1,0.1-0.3,0.1-0.4c0.7-2.8,1.4-5.7,2.1-8.5c0.3-1,0.5-2,0.7-3
						c4.2-18.7,6.6-37.9,7.2-57.6c0.1-3,0.1-5.9,0.1-8.9c0-1.6,0-3.2-0.1-4.8c-0.1-9-0.7-17.4-1.6-25.2
						c-2.2-18.3-6.6-33.4-12.8-45.8c-21.1-41.5-63.9-52.9-121.3-53.3l-2.4-8l-10.7-35.2l-34-111.8c-0.5-1.6-1.3-2.8-2.4-3.8
						c-3.7-3.4-10.2-2.9-13,2.2l-91,166.7c-29,2.1-59.4,3.7-90.7,3.7c-32,0-63.2-1.7-93-3.9L259.4,5.1c-3.6-6.5-13.2-5.5-15.3,1.6
						l-47.2,155.1c-26.1,0.3-49.3,2.8-68.8,9.5c-23.3,8-41.3,21.8-52.7,44.4c-0.1,0.1-0.1,0.2-0.1,0.3c-3,6-5.6,12.6-7.7,19.8
						c-4,13.9-6.2,30.2-6.6,49.4c0,1.9-0.1,3.7-0.1,5.7c0,2.9,0.1,5.8,0.1,8.6c0.1,1.8,0.1,3.6,0.2,5.4c0.9,19,3.5,37.6,7.7,55.7
						c0.6,2.5,1.2,5,1.8,7.5c0.1,0.4,0.2,0.7,0.3,1.1c0.9,3.6,2,7.3,3.1,10.8c-1.5-0.1-3.1-0.3-4.7-0.5c-0.1,0-0.2,0-0.2,0
						c-19.3-2.2-42.8-8.1-62.7-22.8c-0.6-0.4-1.2-0.9-1.7-1.3c-0.7-0.6-1.5-1.2-2.2-1.8c-0.9-0.7-1.8-1.4-2.6-2.2
						c0,0,0.5,8.7,5.6,21.4c0.2,0.4,0.3,0.7,0.4,1.1c7,16.9,22.2,40.4,54.5,59.8c3.4,2.1,7.1,4.1,11,6l0,0c0.6,0.3,1.1,0.6,1.7,0.8
						c3.7,1.8,7.5,3.6,11.6,5.3c-6.4,2.4-13.9,4.8-22,6.6c-13.4,3.1-28.6,4.7-44.3,2.7h0c-1.6-0.2-3.2-0.4-4.7-0.7
						c-1.4-0.2-2.7-0.5-4.1-0.8c-2.5-0.5-4.9-1.2-7.4-1.9l0,0c-0.7-0.2-1.5-0.4-2.2-0.7c0,0,5.2,10.1,18.2,21.5
						c18.4,16.1,52.3,34.6,109.6,30.8c5-0.3,10.2-0.8,15.5-1.5c42,47.3,97.9,84.3,162.2,106.3c15.4,5.3,31.3,9.7,47.6,13.2
						c10.7,1.6,21.7,2.9,32.9,3.8c16.4,1.4,33.3,2.1,50.8,2.1c19.6,0,38.4-0.9,56.6-2.6c23.3-2.2,45.5-5.7,66.4-10.5
						c71.7-20.7,134.1-59.9,180.2-111.3c4.1,0.5,8.1,0.8,12,1.1c57.5,3.9,91.6-14.7,110-30.8c13-11.4,18.2-21.5,18.2-21.5
						c-2.3,0.7-4.7,1.4-7,2C872.4,453.9,871.5,454.1,870.6,454.3z M567.7,160l1.3-2.5l0.4-0.7l4-7.7L612,74
						c5.5-10.7,19.5-11.1,26.3-3c1.5,1.8,2.6,3.9,3.2,6.4l16,63.5l2.1,8.2l2,7.7l0.2,0.7l2.2,8.6l0.5,1.9H563.6L567.7,160z
						 M223.5,164.4l1.1-4.5l0.6-2.5l0.2-0.7l1.9-7.7l18.1-71.6C249.1,63.2,268.3,61,275,74l38.6,75l4,7.7l0.4,0.7l1.3,2.5l4.1,8
						H222.6L223.5,164.4z M311.3,421.5c-0.2,0-0.4,0.1-0.6,0.2c-15.5,3.9-32.2,6.1-49.6,6.1c-76,0-138.5-40.8-144.8-92.8
						c-0.4-2.9-0.5-5.8-0.5-8.8c0-1.3,0-2.6,0.1-3.9c0.3-6.4,1.5-12.7,3.5-18.8c14.8-45.2,72.6-78.8,141.7-78.8
						c62.7,0,116.2,27.8,136.6,66.7c3.3,6.3,5.7,12.9,7.2,19.7c0.7,3.2,1.2,6.5,1.4,9.9c0.1,1.7,0.2,3.5,0.2,5.2
						c0,3-0.2,5.9-0.5,8.8c-0.1,0.9-0.2,1.8-0.4,2.6c-0.4,2.7-1,5.5-1.8,8.1C393.8,380.8,358.3,409.3,311.3,421.5z M487.2,415.7
						c-0.4,0.7-0.9,1.4-1.4,2.1c-4.8,6.8-13.8,12.2-25.1,14.9c-0.1,0-0.1,0-0.2,0c-5.3,1.3-11,2-17,2c-2.4,0-4.8-0.1-7.2-0.4
						c-15.9-1.5-29-7.9-35.1-16.6c-1.4-2-2.4-4.1-3-6.2c-0.2-0.5-0.3-0.9-0.3-1.4c-0.2-1.1-0.4-2.2-0.4-3.3c0-3.8,1.2-5.7,3.4-6.4h0
						c6.9-2.4,23.4,6.4,42.6,6.4c5.2,0,10.1-0.6,14.8-1.5c10.7-2,19.7-5.4,25.2-5.3c0.8,0,1.6,0.1,2.3,0.3c1.2,0.3,2.1,1,2.7,2
						c0.5,0.8,0.8,1.7,1,3c0.1,0.5,0.1,1,0.1,1.6C489.5,410,488.7,412.9,487.2,415.7z M775.4,335c-0.1,0.8-0.2,1.6-0.4,2.5
						c-0.4,2.8-1,5.5-1.8,8.2c0,0.1,0,0.1,0,0.1c-9.7,34.8-44.9,63.2-91.4,75.5c-15.9,4.2-33.2,6.5-51.3,6.5
						c-63.7,0-117.9-28.6-137.5-68.5c-3.8-7.7-6.3-15.8-7.3-24.2c-0.4-2.9-0.5-5.8-0.5-8.8c0-1.3,0-2.6,0.1-3.9
						c0.3-6.4,1.5-12.7,3.5-18.8c11.9-36.3,51.7-65.3,102.8-75.2c12.4-2.4,25.4-3.7,38.9-3.7c62.7,0,116.1,27.7,136.5,66.6
						c0,0,0,0,0,0.1c3.3,6.3,5.8,13,7.2,19.8c0.7,3.1,1.1,6.3,1.4,9.5c0.2,1.9,0.2,3.7,0.2,5.6C775.9,329.1,775.7,332.1,775.4,335z"
						/>
				</g>
			</g>
		</g>
	</g>
</g>
<g>
</g>
<g>
</g>
<g>
</g>
<g>
</g>
<g>
</g>
<g>
</g>
</svg>
