<?xml version="1.0" encoding="utf-8"?>
<!-- Generator: Adobe Illustrator 25.2.1, SVG Export Plug-In . SVG Version: 6.00 Build 0)  -->
<svg version="1.1" id="Capa_1" xmlns="http://www.w3.org/2000/svg" xmlns:xlink="http://www.w3.org/1999/xlink" x="0px" y="0px"
	 viewBox="0 0 1080 237.86" style="enable-background:new 0 0 1080 237.86;" xml:space="preserve">
<style type="text/css">
	.st0{fill:#F2F2F2;}
	.st1{fill:#FFFFFF;}
	.st2{font-family:'BigJohnPRO-Regular';}
	.st3{font-size:64.2271px;}
</style>
<g>
	<g>
		<g>
			<g>
				<path class="st0" d="M439.1,106.57v44.66h-11.67v-42.48c0-14.81-8.88-25.1-22.53-25.1c-13.04,0-22.53,11.07-22.53,22.91v44.66
					h-11.67v-42.48c0-14.81-9.09-25.1-23.12-25.1c-13.04,0-22.53,11.07-22.53,22.91v44.66H313.4V74.17h11.67v6.91
					c5.92-5.53,14.03-8.88,23.12-8.88c11.07,0,21.72,5.53,28.06,14.81c8.5-10.68,17.98-14.81,29.23-14.81
					C422.49,72.2,439.1,86.05,439.1,106.57z"/>
				<path class="st0" d="M464.79,116.86V74.17h11.67v42.09c0,13.25,9.09,23.51,23.12,23.51c13.04,0,22.53-11.07,22.53-22.91V74.17
					h11.67v77.06h-11.67v-8.88c-5.92,5.53-14.03,8.88-23.12,8.88C481.58,151.23,464.79,137.41,464.79,116.86z"/>
				<path class="st0" d="M555.52,113.69c0-21.81,17.71-39.52,39.34-39.52c10.98,0,20.64,4.58,27.88,11.64l-17.38,17.71
					c-2.63-2.78-6.55-4.43-10.5-4.43c-8.05,0-14.6,6.55-14.6,14.6s6.55,14.75,14.6,14.75c4.1,0,7.72-1.47,10.17-4.43l17.71,17.38
					c-7.06,6.88-15.91,11.49-27.88,11.49C573.23,152.88,555.52,135.65,555.52,113.69z"/>
				<path class="st0" d="M639.94,75.82h26.24v75.41h-26.24V75.82z M641.77,55.98c0-6.55,5.41-12.15,12.12-12.15
					c6.55,0,11.97,5.56,11.97,12.15s-5.41,12.12-11.97,12.12C647.15,68.13,641.77,62.54,641.77,55.98z"/>
				<path class="st0" d="M733.07,95.65h-12.95v55.58h-26.24V95.65h-12.95V75.82h12.95V53.2h26.24v22.62h12.95V95.65z"/>
				<path class="st0" d="M831.43,75.82v75.41h-26.71v-3.62c-5.89,3.44-12.44,5.24-19.68,5.24c-21.96,0-39.67-17.38-39.67-39.34
					c0-21.81,17.71-39.34,39.67-39.34c7.21,0,13.76,1.79,19.68,5.24v-3.62h26.71V75.82z M799.12,113.87c0-8.05-6.07-14.6-14.09-14.6
					c-7.87,0-14.6,6.55-14.6,14.6c0,8.2,6.73,14.75,14.6,14.75C793.05,128.62,799.12,122.07,799.12,113.87z"/>
				<path class="st0" d="M848.63,113.03c0-22.29,17.86-38.86,39.34-38.86c6.88,0,13.76,2.12,19.5,5.56v-51.6h26.24v123.1h-26.24
					v-4.58c-5.74,3.62-11.64,6.22-19.5,6.22C867.8,152.88,848.63,136.96,848.63,113.03z M902.71,113.54c0-7.87-6.22-14.6-14.93-14.6
					c-8.05,0-14.42,6.73-14.42,14.6c0,8.05,6.4,14.75,14.42,14.75C896.34,128.29,902.71,121.56,902.71,113.54z"/>
				<path class="st0" d="M952.55,113.54c0-21.81,17.53-39.34,39.52-39.34c22.14,0,39.01,17.53,39.01,39.34
					c0,2.63-0.15,5.24-0.66,7.87h-54.74c2.96,5.89,9.18,10.17,16.39,10.17c3.11,0,6.22-0.81,8.68-2.3l15.59,15.59
					c-6.88,4.91-15.26,8.05-24.26,8.05C970.08,152.88,952.55,135.5,952.55,113.54z M1007.8,106c-2.63-6.07-8.53-10.32-15.74-10.32
					c-7.39,0-13.61,4.25-16.54,10.32H1007.8z"/>
				<path class="st0" d="M1048.28,28.28h26.24v122.95h-26.24V28.28z"/>
			</g>
		</g>
		<g>
			<g>
				<g>
					<g>
						<path class="st0" d="M104.41,96.79c0,0.18,0,0.36,0,0.57c0,0.42-0.03,0.84-0.06,1.26c-0.03,0.21-0.06,0.39-0.09,0.6
							c0,0.12-0.03,0.24-0.06,0.33c-0.03,0.12-0.03,0.27-0.06,0.39c-0.03,0.15-0.06,0.3-0.09,0.42c-0.06,0.18-0.09,0.39-0.15,0.57
							c-0.03,0.09-0.06,0.18-0.09,0.24c0,0.03,0,0.03-0.03,0.06c-0.03,0.09-0.06,0.15-0.09,0.24c-0.03,0.09-0.06,0.18-0.09,0.27
							c-0.06,0.18-0.12,0.36-0.21,0.54c0,0.03,0,0.03-0.03,0.06c-0.09,0.21-0.18,0.39-0.27,0.6c-0.03,0.06-0.06,0.09-0.06,0.15l0,0
							c-0.09,0.18-0.21,0.39-0.3,0.57c-0.03,0.06-0.06,0.12-0.09,0.15l-0.03,0.03c-0.06,0.09-0.12,0.18-0.15,0.27
							c-0.03,0.06-0.06,0.12-0.12,0.18c-0.06,0.09-0.12,0.18-0.18,0.27c-0.09,0.12-0.15,0.24-0.24,0.36c0,0,0,0-0.03,0.03
							c-0.12,0.18-0.27,0.36-0.42,0.54c-0.15,0.15-0.27,0.33-0.42,0.48c-0.12,0.12-0.24,0.24-0.36,0.36
							c-0.06,0.06-0.12,0.09-0.15,0.15c-0.03,0.03-0.06,0.06-0.12,0.09c-0.09,0.09-0.15,0.15-0.24,0.21
							c-0.12,0.12-0.21,0.21-0.33,0.3c-0.21,0.21-0.45,0.36-0.69,0.54c-0.15,0.12-0.33,0.24-0.51,0.33
							c-0.06,0.06-0.12,0.09-0.18,0.12c-0.15,0.09-0.33,0.21-0.48,0.27c-0.03,0.03-0.06,0.06-0.12,0.06
							c-0.12,0.06-0.27,0.15-0.39,0.21c-0.18,0.09-0.36,0.18-0.54,0.27c-0.51,0.24-1.05,0.42-1.59,0.6c-0.03,0-0.09,0.03-0.12,0.03
							c-0.09,0.03-0.18,0.06-0.27,0.09c-0.06,0.03-0.15,0.03-0.21,0.06c-0.03,0-0.06,0-0.09,0.03c-0.03,0-0.06,0-0.06,0.03
							c-0.27,0.06-0.51,0.12-0.78,0.15c-0.09,0-0.15,0.03-0.24,0.03c-0.06,0-0.12,0.03-0.15,0.03c-0.54,0.06-1.08,0.12-1.65,0.12
							c-0.24,0-0.48,0-0.75-0.03c-0.18,0-0.36-0.03-0.54-0.06c-0.15,0-0.33-0.03-0.48-0.06c-0.12,0-0.21-0.03-0.33-0.06
							c-0.3-0.06-0.57-0.12-0.87-0.18c-0.15-0.03-0.27-0.06-0.42-0.12c-0.27-0.06-0.54-0.15-0.81-0.24l0,0
							c-0.12-0.06-0.27-0.09-0.39-0.15c-0.63-0.24-1.26-0.54-1.85-0.9l0,0c-0.21-0.12-0.42-0.27-0.63-0.39c0,0-0.03-0.03-0.06-0.03
							c-0.21-0.15-0.42-0.3-0.63-0.48c-0.21-0.15-0.39-0.3-0.57-0.48c-0.03-0.03-0.06-0.03-0.09-0.06
							c-0.18-0.15-0.36-0.33-0.54-0.48c-0.15-0.15-0.3-0.3-0.42-0.48c-0.09-0.09-0.15-0.15-0.21-0.24c-0.15-0.18-0.3-0.36-0.42-0.54
							c-0.15-0.18-0.3-0.39-0.42-0.6c-0.03-0.06-0.06-0.12-0.12-0.15c-0.12-0.18-0.24-0.36-0.33-0.54
							c-0.09-0.15-0.15-0.27-0.24-0.42c-0.09-0.15-0.18-0.33-0.27-0.51c-0.06-0.12-0.09-0.21-0.15-0.33
							c-0.03-0.09-0.09-0.18-0.12-0.27c-0.06-0.15-0.12-0.27-0.15-0.42c-0.06-0.12-0.09-0.24-0.12-0.36
							c-0.06-0.12-0.09-0.27-0.12-0.39c-0.06-0.12-0.09-0.27-0.12-0.39c-0.03-0.09-0.06-0.21-0.09-0.3
							c-0.03-0.15-0.09-0.33-0.12-0.48c-0.03-0.15-0.06-0.27-0.09-0.42c0-0.09-0.03-0.15-0.03-0.24c-0.03-0.18-0.06-0.36-0.06-0.54
							c0-0.03,0-0.06,0-0.09l-0.03-0.48c0-0.24-0.03-0.48-0.03-0.75c0-0.42,0.03-0.81,0.06-1.2c0-0.18,0.03-0.36,0.06-0.57
							c0-0.03,0-0.09,0.03-0.12l0,0l0,0c0.03-0.12,0.06-0.27,0.06-0.39c0.03-0.09,0.03-0.18,0.06-0.27c0.03-0.15,0.06-0.3,0.09-0.45
							c0.06-0.27,0.12-0.51,0.21-0.75c0.03-0.12,0.06-0.24,0.12-0.36c0.06-0.15,0.12-0.33,0.18-0.51c1.76-4.46,5.98-7.66,10.98-7.93
							c0.03,0,0.06,0,0.06,0c0.21,0,0.42-0.03,0.63-0.03c0.18,0,0.36,0,0.54,0c0.09,0,0.18,0,0.27,0c0.3,0,0.57,0.06,0.87,0.09
							c0.12,0,0.27,0.03,0.39,0.06c0.39,0.06,0.78,0.15,1.17,0.24c0.18,0.06,0.36,0.09,0.54,0.15l0,0c0.21,0.06,0.39,0.12,0.6,0.21
							c0.18,0.06,0.36,0.15,0.57,0.21c0.18,0.09,0.36,0.15,0.57,0.24c0.12,0.06,0.21,0.12,0.33,0.18c0.09,0.06,0.18,0.12,0.3,0.15
							l0,0c0.27,0.15,0.54,0.33,0.81,0.48c0.12,0.09,0.27,0.18,0.39,0.27c0.42,0.3,0.81,0.6,1.17,0.93c0.12,0.09,0.21,0.21,0.33,0.3
							c0.03,0.03,0.06,0.06,0.06,0.06c0.09,0.09,0.21,0.21,0.3,0.3c0.18,0.18,0.33,0.36,0.48,0.54c0.12,0.12,0.21,0.24,0.3,0.39
							c0.09,0.12,0.18,0.24,0.27,0.36c0.48,0.69,0.93,1.41,1.26,2.18c0.06,0.12,0.12,0.27,0.18,0.42c0.06,0.15,0.12,0.27,0.15,0.42
							l0,0c0.06,0.18,0.12,0.36,0.18,0.54l0,0c0.24,0.78,0.42,1.56,0.51,2.39c0.03,0.15,0.03,0.27,0.03,0.42c0,0.03,0,0.09,0,0.12
							C104.41,96.58,104.41,96.67,104.41,96.79z"/>
						<g>
							<path class="st0" d="M104.41,96.79c0-0.09,0-0.21-0.03-0.3c0-0.03,0-0.09,0-0.12c-0.03-0.15-0.03-0.27-0.03-0.42
								c-0.06-0.42-0.12-0.84-0.21-1.23c-0.09-0.39-0.18-0.78-0.3-1.17l0,0c-0.06-0.18-0.12-0.36-0.18-0.54l0,0
								c-0.06-0.15-0.12-0.27-0.18-0.42c-0.06-0.15-0.12-0.27-0.18-0.42c-0.33-0.78-0.78-1.5-1.26-2.18
								c-0.09-0.12-0.18-0.24-0.27-0.36c-0.09-0.12-0.21-0.27-0.3-0.39c-0.15-0.18-0.3-0.36-0.48-0.54c-0.09-0.12-0.21-0.21-0.3-0.3
								c-0.03-0.03-0.06-0.06-0.06-0.06c-0.12-0.12-0.21-0.21-0.33-0.3c-0.36-0.33-0.75-0.66-1.17-0.93
								c-0.12-0.09-0.24-0.18-0.39-0.27c-0.27-0.18-0.54-0.36-0.81-0.48l0,0c-0.09-0.06-0.18-0.12-0.3-0.15
								c-0.12-0.06-0.21-0.12-0.33-0.18c-0.18-0.09-0.36-0.18-0.57-0.24c-0.18-0.09-0.36-0.15-0.57-0.21
								c-0.21-0.06-0.39-0.12-0.6-0.21c-0.09-0.03-0.18-0.06-0.27-0.09l0,0c-0.09-0.03-0.18-0.06-0.27-0.06
								c-0.18-0.06-0.39-0.09-0.57-0.15c-0.18-0.03-0.39-0.06-0.6-0.09c-0.12-0.03-0.27-0.06-0.39-0.06
								c-0.27-0.03-0.57-0.06-0.87-0.09c-0.09,0-0.18,0-0.27-0.03c-0.18,0-0.36,0-0.54,0c-0.21,0-0.39,0-0.6,0.03H91.1
								c-0.39,0.03-0.75,0.06-1.14,0.12C89.84,85,89.75,85,89.63,85.03c-0.15,0.03-0.33,0.06-0.48,0.09
								c-0.09,0.03-0.18,0.03-0.27,0.06c-0.09,0.03-0.18,0.03-0.24,0.06c-0.15,0.03-0.27,0.09-0.42,0.12
								c-0.21,0.06-0.45,0.15-0.66,0.21h-0.03h-0.03c-0.21,0.09-0.42,0.18-0.63,0.24c-0.21,0.09-0.42,0.18-0.6,0.27
								c-0.06,0.03-0.15,0.06-0.21,0.12c-0.15,0.09-0.3,0.15-0.45,0.24c-0.12,0.06-0.24,0.15-0.36,0.21
								c-0.12,0.06-0.24,0.15-0.33,0.21c-0.18,0.12-0.36,0.24-0.54,0.39c-0.18,0.15-0.36,0.27-0.54,0.42l0,0c0,0,0,0-0.03,0.03
								c-0.15,0.12-0.33,0.27-0.48,0.42c-0.87,0.78-1.59,1.65-2.21,2.63c-0.06,0.09-0.12,0.18-0.18,0.27
								c-0.03,0.06-0.06,0.09-0.09,0.15c-0.12,0.21-0.24,0.45-0.36,0.69c-0.15,0.3-0.3,0.6-0.42,0.93
								c-0.06,0.18-0.12,0.33-0.18,0.51c-0.06,0.12-0.09,0.24-0.12,0.36c-0.09,0.24-0.15,0.48-0.21,0.75
								c-0.03,0.15-0.06,0.3-0.09,0.45c-0.03,0.09-0.03,0.18-0.06,0.27c-0.03,0.12-0.03,0.24-0.06,0.39l0,0l0,0
								c0,0.06-0.03,0.09-0.03,0.12c0,0.06-0.03,0.12-0.03,0.18c-0.03,0.12-0.03,0.24-0.03,0.36c-0.03,0.3-0.06,0.6-0.06,0.9
								c0,0.09,0,0.21,0,0.3c0,0.24,0,0.51,0.03,0.75c0,0.15,0.03,0.33,0.03,0.48c0,0.03,0,0.06,0,0.09
								c0.03,0.18,0.03,0.36,0.06,0.54c0,0.09,0.03,0.15,0.03,0.24c0.03,0.15,0.06,0.27,0.09,0.42c0.03,0.18,0.06,0.33,0.12,0.48
								c0.03,0.09,0.06,0.21,0.09,0.3c0.03,0.06,0.03,0.12,0.06,0.21c0.03,0.06,0.03,0.15,0.06,0.21c0.03,0.12,0.09,0.24,0.12,0.39
								c0.03,0.12,0.09,0.24,0.12,0.36c0.06,0.15,0.12,0.27,0.15,0.42c0.03,0.09,0.09,0.18,0.12,0.27c0.06,0.12,0.09,0.21,0.15,0.33
								c0.09,0.18,0.15,0.33,0.27,0.51c0.06,0.15,0.15,0.27,0.24,0.42c0.09,0.18,0.21,0.36,0.33,0.54c0.03,0.06,0.06,0.12,0.12,0.15
								c0.15,0.21,0.27,0.42,0.45,0.6c0.12,0.18,0.27,0.36,0.42,0.54c0.06,0.09,0.15,0.18,0.21,0.24c0.15,0.15,0.27,0.3,0.42,0.48
								c0.18,0.18,0.33,0.33,0.54,0.48c0.03,0.03,0.06,0.06,0.09,0.06c0.18,0.15,0.36,0.33,0.57,0.48c0.21,0.15,0.42,0.33,0.63,0.48
								c0.03,0,0.03,0.03,0.06,0.03c0.21,0.15,0.42,0.27,0.63,0.39l0,0c0.57,0.36,1.2,0.63,1.85,0.9c0.12,0.06,0.27,0.09,0.39,0.15
								l0,0c0.27,0.09,0.54,0.18,0.78,0.24c0.15,0.03,0.27,0.06,0.42,0.12c0.27,0.06,0.57,0.12,0.87,0.18
								c0.12,0.03,0.21,0.03,0.33,0.06c0.15,0.03,0.33,0.06,0.48,0.06c0.18,0.03,0.36,0.03,0.54,0.06c0.24,0.03,0.48,0.03,0.75,0.03
								c0.54,0,1.11-0.03,1.65-0.09c0.06,0,0.12-0.03,0.15-0.03c0.09,0,0.15-0.03,0.24-0.03c0.12-0.03,0.21-0.03,0.33-0.06
								c0.15-0.03,0.3-0.06,0.48-0.09h0.03h0.03c0.03,0,0.06-0.03,0.09-0.03c0.06-0.03,0.15-0.03,0.21-0.06
								c0.09-0.03,0.18-0.06,0.27-0.09c0.06-0.03,0.09-0.03,0.12-0.03c0.54-0.15,1.08-0.36,1.59-0.6c0.18-0.09,0.36-0.18,0.54-0.24
								c0.15-0.06,0.27-0.12,0.39-0.21c0.03-0.03,0.06-0.03,0.12-0.06c0.18-0.09,0.33-0.18,0.48-0.27c0.06-0.03,0.12-0.09,0.18-0.12
								c0.18-0.12,0.33-0.24,0.51-0.33c0.24-0.18,0.48-0.33,0.69-0.54c0.12-0.09,0.24-0.21,0.33-0.3c0.09-0.06,0.15-0.15,0.24-0.21
								c0.03-0.03,0.06-0.06,0.12-0.09l0.03-0.03c0.03,0,0.03-0.03,0.03-0.03c0.03-0.03,0.06-0.06,0.09-0.06
								c0.06-0.06,0.12-0.12,0.18-0.18c0.03-0.03,0.06-0.09,0.12-0.12l0.03-0.03l0.03-0.03c0.06-0.09,0.15-0.15,0.21-0.24
								c0.06-0.06,0.09-0.12,0.15-0.18c0.03,0,0.03-0.03,0.03-0.03c0-0.03,0.03-0.03,0.03-0.03c0.15-0.18,0.3-0.36,0.42-0.54
								c0,0,0-0.03,0.03-0.03c0.09-0.12,0.15-0.24,0.24-0.36c0.06-0.09,0.12-0.18,0.18-0.27c0.03-0.06,0.06-0.12,0.12-0.18
								c0.06-0.09,0.09-0.15,0.15-0.27l0.03-0.03c0.03-0.06,0.06-0.12,0.09-0.18c0.03-0.06,0.06-0.12,0.09-0.18
								c0.06-0.12,0.15-0.27,0.21-0.39l0,0c0.03-0.06,0.06-0.09,0.06-0.15c0.09-0.21,0.18-0.39,0.27-0.6
								c0.03-0.03,0.03-0.03,0.03-0.06c0.09-0.18,0.15-0.36,0.21-0.54c0.03-0.09,0.06-0.18,0.09-0.27c0.03-0.09,0.06-0.15,0.09-0.24
								c0-0.03,0-0.03,0.03-0.06c0.03-0.09,0.06-0.15,0.09-0.24c0.06-0.18,0.12-0.36,0.15-0.57c0.03-0.15,0.06-0.27,0.09-0.42
								c0.03-0.12,0.06-0.27,0.06-0.39c0.03-0.12,0.03-0.21,0.06-0.33c0.03-0.18,0.06-0.39,0.09-0.57c0.06-0.42,0.06-0.84,0.06-1.26
								C104.44,97.15,104.44,96.97,104.41,96.79z"/>
							<path class="st0" d="M186.59,97.36c0,0.42-0.03,0.84-0.06,1.26c-0.21,2.06-0.9,3.98-2,5.62c-2.24,3.41-6.1,5.68-10.5,5.68
								c-2.33,0-4.52-0.63-6.37-1.74c-2.12-1.26-3.83-3.08-4.91-5.29c-0.81-1.68-1.29-3.56-1.29-5.53c0-0.54,0.03-1.05,0.09-1.59
								c0-0.12,0.03-0.21,0.06-0.3c0.03-0.21,0.06-0.45,0.12-0.66c0.15-0.72,0.36-1.41,0.63-2.06c1.41-3.56,4.4-6.31,8.08-7.42
								c1.14-0.33,2.33-0.54,3.59-0.54c5.62,0,10.38,3.68,11.97,8.76C186.38,94.75,186.59,96.01,186.59,97.36z"/>
							<path class="st0" d="M104.44,97.33c0,0.42-0.03,0.84-0.06,1.26c-0.03,0.21-0.06,0.39-0.06,0.6
								c-0.12,0.69-0.27,1.38-0.48,2.03c-0.03,0.09-0.06,0.15-0.09,0.24c-0.18,0.54-0.42,1.08-0.66,1.59l0,0
								c-0.15,0.27-0.27,0.51-0.42,0.78c-0.06,0.09-0.12,0.18-0.15,0.27c-0.09,0.15-0.18,0.3-0.3,0.42
								c-0.48,0.69-1.02,1.32-1.62,1.88c-0.03,0.03-0.06,0.06-0.12,0.09c-0.09,0.09-0.15,0.15-0.24,0.21
								c-0.12,0.12-0.21,0.21-0.33,0.3c-0.6,0.48-1.2,0.9-1.85,1.29c-0.18,0.09-0.33,0.18-0.51,0.27c-0.18,0.09-0.36,0.18-0.54,0.27
								c-0.51,0.21-1.05,0.42-1.59,0.6c-0.03,0-0.09,0.03-0.12,0.03c-0.15,0.06-0.3,0.09-0.48,0.12c-0.03,0-0.06,0-0.09,0.03
								c-0.36,0.09-0.72,0.15-1.08,0.21c-0.6,0.09-1.2,0.12-1.79,0.12c-0.24,0-0.48,0-0.75-0.03c-0.18,0-0.36-0.03-0.54-0.06
								c-0.15,0-0.33-0.03-0.48-0.06c-0.12,0-0.21-0.03-0.33-0.06c-0.3-0.06-0.6-0.12-0.87-0.18c-0.15-0.03-0.27-0.06-0.42-0.12
								c-0.27-0.06-0.54-0.15-0.78-0.24l0,0c-0.12-0.06-0.27-0.09-0.39-0.15c-0.63-0.24-1.26-0.54-1.85-0.9l0,0
								c-0.21-0.12-0.42-0.27-0.63-0.39c0,0-0.03-0.03-0.06-0.03c-0.21-0.15-0.42-0.3-0.63-0.48c-0.21-0.15-0.39-0.3-0.57-0.48
								c-0.03-0.03-0.06-0.03-0.09-0.06c-0.18-0.15-0.36-0.33-0.54-0.48c-0.15-0.15-0.3-0.3-0.42-0.48
								c-0.09-0.09-0.15-0.15-0.21-0.24c-0.15-0.18-0.3-0.36-0.42-0.54c-0.15-0.18-0.3-0.39-0.42-0.6
								c-0.03-0.06-0.06-0.12-0.12-0.15c-0.12-0.18-0.24-0.36-0.33-0.54c-0.09-0.15-0.15-0.27-0.24-0.42
								c-0.09-0.15-0.18-0.33-0.27-0.51c-0.06-0.12-0.09-0.21-0.15-0.33c-0.03-0.09-0.09-0.18-0.12-0.27
								c-0.06-0.15-0.12-0.27-0.15-0.42c-0.06-0.12-0.09-0.24-0.12-0.36c-0.06-0.12-0.09-0.27-0.12-0.39
								c-0.06-0.12-0.09-0.27-0.12-0.39c-0.03-0.09-0.06-0.21-0.09-0.3c-0.03-0.15-0.09-0.33-0.12-0.48
								c-0.03-0.15-0.06-0.27-0.09-0.42c0-0.09-0.03-0.15-0.03-0.24c-0.03-0.18-0.06-0.36-0.06-0.54c0-0.03,0-0.06,0-0.09
								l-0.03-0.48c0-0.24-0.03-0.48-0.03-0.75c0-0.42,0.03-0.81,0.06-1.2c0-0.18,0.03-0.36,0.06-0.57c0-0.03,0-0.09,0.03-0.12l0,0
								l0,0c0.03-0.12,0.06-0.27,0.06-0.39c0.03-0.09,0.03-0.18,0.06-0.27c0.03-0.15,0.06-0.3,0.09-0.45
								c0.06-0.27,0.12-0.51,0.21-0.75c0.03-0.12,0.06-0.24,0.12-0.36c0.06-0.15,0.12-0.33,0.18-0.51
								c1.76-4.46,5.98-7.66,10.98-7.93c0.03,0,0.06,0,0.06,0c0.21,0,0.42-0.03,0.63-0.03c0.18,0,0.36,0,0.54,0
								c0.09,0,0.18,0,0.27,0c0.3,0,0.57,0.06,0.87,0.09c0.12,0,0.27,0.03,0.39,0.06c0.39,0.06,0.78,0.15,1.17,0.24
								c0.18,0.06,0.36,0.09,0.54,0.15l0,0c0.21,0.06,0.39,0.12,0.6,0.21c0.18,0.06,0.36,0.15,0.57,0.21
								c0.18,0.09,0.36,0.15,0.57,0.24c0.12,0.06,0.21,0.12,0.33,0.18c0.09,0.06,0.18,0.12,0.3,0.15l0,0
								c0.27,0.15,0.54,0.33,0.81,0.48c0.12,0.09,0.27,0.18,0.39,0.27c0.42,0.3,0.81,0.6,1.17,0.93c0.12,0.09,0.21,0.21,0.33,0.3
								c0.03,0.03,0.06,0.06,0.06,0.06c0.09,0.09,0.21,0.21,0.3,0.3c0.18,0.18,0.33,0.36,0.48,0.54c0.12,0.12,0.21,0.24,0.3,0.39
								c0.09,0.12,0.18,0.24,0.27,0.36c0.48,0.69,0.93,1.41,1.26,2.18c0.06,0.12,0.12,0.27,0.18,0.42c0.06,0.15,0.12,0.27,0.15,0.42
								c0.06,0.18,0.12,0.36,0.18,0.54c0.24,0.78,0.42,1.56,0.51,2.39c0.03,0.15,0.03,0.27,0.03,0.42c0,0.03,0,0.09,0,0.12
								c0,0.09,0,0.21,0.03,0.3C104.41,96.97,104.44,97.15,104.44,97.33z"/>
						</g>
						<path class="st0" d="M261.67,135.68c-0.18,0.03-0.36,0.09-0.54,0.12c-1.05,0.21-2.09,0.36-3.14,0.45
							c-4.34,0.42-8.53-0.06-12.26-0.93c-2.42-0.54-4.67-1.26-6.58-1.97c0.9-0.39,1.76-0.78,2.6-1.17c0.48-0.21,0.93-0.45,1.38-0.66
							c0.18-0.09,0.39-0.18,0.57-0.3c0.87-0.45,1.68-0.93,2.48-1.38c9.84-5.8,14.45-12.92,16.57-18.04
							c1.11-2.63,1.53-4.76,1.71-5.83c0.09-0.57,0.12-0.87,0.12-0.87c-0.27,0.24-0.54,0.45-0.78,0.66c-0.36,0.3-0.75,0.6-1.14,0.87
							c-0.27,0.21-0.54,0.39-0.84,0.6c-5.38,3.71-11.52,5.38-16.78,6.1c-0.09,0.03-0.15,0.03-0.24,0.03
							c-0.42,0.06-0.84,0.12-1.23,0.15c0.27-0.87,0.51-1.76,0.75-2.63c0.06-0.21,0.12-0.42,0.18-0.63c0-0.03,0.03-0.09,0.03-0.12
							c0.21-0.84,0.42-1.71,0.63-2.54c0.09-0.3,0.15-0.6,0.21-0.9c1.26-5.59,1.97-11.34,2.15-17.23c0.03-0.9,0.03-1.76,0.03-2.66
							c0-0.48,0-0.96-0.03-1.44c-0.03-2.69-0.21-5.21-0.48-7.54c-0.66-5.47-1.97-9.99-3.83-13.7
							c-6.31-12.41-19.12-15.82-36.29-15.94l-0.72-2.39l-3.2-10.53L192.84,1.81c-0.15-0.48-0.39-0.84-0.72-1.14
							c-1.11-1.02-3.05-0.87-3.89,0.66L161.01,51.2c-8.68,0.63-17.77,1.11-27.13,1.11c-9.57,0-18.91-0.51-27.82-1.17L78.84,1.3
							c-1.08-1.94-3.95-1.65-4.58,0.48l-14.12,46.4c-7.81,0.09-14.75,0.84-20.58,2.84c-6.97,2.39-12.35,6.52-15.76,13.28
							c-0.03,0.03-0.03,0.06-0.03,0.09c-0.9,1.79-1.68,3.77-2.3,5.92c-1.2,4.16-1.85,9.03-1.97,14.78c0,0.57-0.03,1.11-0.03,1.71
							c0,0.87,0.03,1.74,0.03,2.57c0.03,0.54,0.03,1.08,0.06,1.62c0.27,5.68,1.05,11.25,2.3,16.66c0.18,0.75,0.36,1.5,0.54,2.24
							c0.03,0.12,0.06,0.21,0.09,0.33c0.27,1.08,0.6,2.18,0.93,3.23c-0.45-0.03-0.93-0.09-1.41-0.15c-0.03,0-0.06,0-0.06,0
							c-5.77-0.66-12.8-2.42-18.76-6.82c-0.18-0.12-0.36-0.27-0.51-0.39c-0.21-0.18-0.45-0.36-0.66-0.54
							c-0.27-0.21-0.54-0.42-0.78-0.66c0,0,0.15,2.6,1.68,6.4c0.06,0.12,0.09,0.21,0.12,0.33c2.09,5.06,6.64,12.09,16.3,17.89
							c1.02,0.63,2.12,1.23,3.29,1.79l0,0c0.18,0.09,0.33,0.18,0.51,0.24c1.11,0.54,2.24,1.08,3.47,1.59
							c-1.91,0.72-4.16,1.44-6.58,1.97c-4.01,0.93-8.56,1.41-13.25,0.81l0,0c-0.48-0.06-0.96-0.12-1.41-0.21
							c-0.42-0.06-0.81-0.15-1.23-0.24c-0.75-0.15-1.47-0.36-2.21-0.57l0,0c-0.21-0.06-0.45-0.12-0.66-0.21c0,0,1.56,3.02,5.44,6.43
							c5.5,4.82,15.65,10.35,32.79,9.21c1.5-0.09,3.05-0.24,4.64-0.45c12.56,14.15,29.29,25.22,48.52,31.8
							c4.61,1.59,9.36,2.9,14.24,3.95c3.2,0.48,6.49,0.87,9.84,1.14c4.91,0.42,9.96,0.63,15.2,0.63c5.86,0,11.49-0.27,16.93-0.78
							c6.97-0.66,13.61-1.71,19.86-3.14c21.45-6.19,40.12-17.92,53.91-33.29c1.23,0.15,2.42,0.24,3.59,0.33
							c17.2,1.17,27.4-4.4,32.91-9.21c3.89-3.41,5.44-6.43,5.44-6.43c-0.69,0.21-1.41,0.42-2.09,0.6
							C262.21,135.56,261.94,135.62,261.67,135.68z M171.06,47.64l0.39-0.75l0.12-0.21l1.2-2.3l11.55-22.47
							c1.65-3.2,5.83-3.32,7.87-0.9c0.45,0.54,0.78,1.17,0.96,1.91l4.79,19l0.63,2.45l0.6,2.3l0.06,0.21l0.66,2.57l0.15,0.57h-30.18
							L171.06,47.64z M68.1,48.95l0.33-1.35l0.18-0.75l0.06-0.21l0.57-2.3l5.41-21.42c1.11-4.25,6.85-4.91,8.85-1.02l11.55,22.44
							l1.2,2.3l0.12,0.21l0.39,0.75L97.98,50H67.83L68.1,48.95z M94.36,125.86c-0.06,0-0.12,0.03-0.18,0.06
							c-4.64,1.17-9.63,1.82-14.84,1.82c-22.74,0-41.43-12.21-43.32-27.76c-0.12-0.87-0.15-1.74-0.15-2.63c0-0.39,0-0.78,0.03-1.17
							c0.09-1.91,0.45-3.8,1.05-5.62c4.43-13.52,21.72-23.57,42.39-23.57c18.76,0,34.76,8.32,40.86,19.95
							c0.99,1.88,1.71,3.86,2.15,5.89c0.21,0.96,0.36,1.94,0.42,2.96c0.03,0.51,0.06,1.05,0.06,1.56c0,0.9-0.06,1.76-0.15,2.63
							c-0.03,0.27-0.06,0.54-0.12,0.78c-0.12,0.81-0.3,1.65-0.54,2.42C119.04,113.69,108.42,122.22,94.36,125.86z M146.98,124.13
							c-0.12,0.21-0.27,0.42-0.42,0.63c-1.44,2.03-4.13,3.65-7.51,4.46c-0.03,0-0.03,0-0.06,0c-1.59,0.39-3.29,0.6-5.09,0.6
							c-0.72,0-1.44-0.03-2.15-0.12c-4.76-0.45-8.68-2.36-10.5-4.97c-0.42-0.6-0.72-1.23-0.9-1.85c-0.06-0.15-0.09-0.27-0.09-0.42
							c-0.06-0.33-0.12-0.66-0.12-0.99c0-1.14,0.36-1.71,1.02-1.91l0,0c2.06-0.72,7,1.91,12.74,1.91c1.56,0,3.02-0.18,4.43-0.45
							c3.2-0.6,5.89-1.62,7.54-1.59c0.24,0,0.48,0.03,0.69,0.09c0.36,0.09,0.63,0.3,0.81,0.6c0.15,0.24,0.24,0.51,0.3,0.9
							c0.03,0.15,0.03,0.3,0.03,0.48C147.67,122.42,147.43,123.29,146.98,124.13z M233.19,99.99c-0.03,0.24-0.06,0.48-0.12,0.75
							c-0.12,0.84-0.3,1.65-0.54,2.45c0,0.03,0,0.03,0,0.03c-2.9,10.41-13.43,18.91-27.34,22.59c-4.76,1.26-9.93,1.94-15.35,1.94
							c-19.06,0-35.27-8.56-41.13-20.49c-1.14-2.3-1.88-4.73-2.18-7.24c-0.12-0.87-0.15-1.74-0.15-2.63c0-0.39,0-0.78,0.03-1.17
							c0.09-1.91,0.45-3.8,1.05-5.62c3.56-10.86,15.47-19.53,30.75-22.5c3.71-0.72,7.6-1.11,11.64-1.11
							c18.76,0,34.73,8.29,40.83,19.92c0,0,0,0,0,0.03c0.99,1.88,1.74,3.89,2.15,5.92c0.21,0.93,0.33,1.88,0.42,2.84
							c0.06,0.57,0.06,1.11,0.06,1.68C233.34,98.22,233.28,99.12,233.19,99.99z"/>
					</g>
				</g>
			</g>
		</g>
	</g>
	<text transform="matrix(1 0 0 1 727.5117 215.7058)" class="st1 st2 st3">open beta 0.9</text>
</g>
</svg>
